<svg xmlns="http://www.w3.org/2000/svg" viewBox="0 0 20.8 19.82"><defs fill="#ffffff"><style>.cls-1,.cls-2,.cls-5{fill:none;}.cls-1,.cls-2,.cls-3,.cls-4,.cls-5{stroke:#ffffff;stroke-width:0.7px;}.cls-1{stroke-linecap:round;}.cls-1,.cls-4,.cls-5{stroke-linejoin:round;}.cls-2,.cls-3{stroke-miterlimit:10;}.cls-3,.cls-4{fill:#ffffff;}</style></defs><title>baby</title><g id="Layer_2" data-name="Layer 2"><g id="Grid"><path class="cls-1" d="M9.11,6a3.17,3.17,0,0,0,3.29-3,2.3,2.3,0,0,0-2-2.69A1.93,1.93,0,0,0,8.27,2.11,1.47,1.47,0,0,0,9.48,3.89,1.18,1.18,0,0,0,10.77,2.7" fill="#ffffff"/><circle class="cls-2" cx="10.4" cy="17.4" r="2.06" fill="#ffffff"/><circle class="cls-3" cx="7.89" cy="11.34" r="0.23" fill="#ffffff"/><circle class="cls-3" cx="12.91" cy="11.34" r="0.23" fill="#ffffff"/><path class="cls-4" d="M10.4,15.23A4.11,4.11,0,0,1,8.73,15a4.11,4.11,0,0,1,1.67-.25,4.11,4.11,0,0,1,1.67.25A4.11,4.11,0,0,1,10.4,15.23Z" fill="#ffffff"/><path class="cls-5" d="M13.6,4.2a7.36,7.36,0,0,1,4.34,4.53v0a1.42,1.42,0,0,1,.87-.3,1.8,1.8,0,0,1,1.63,1.93,1.8,1.8,0,0,1-1.63,1.93,1.43,1.43,0,0,1-.73-.21h0A7.24,7.24,0,0,1,13.88,17" fill="#ffffff"/><path class="cls-5" d="M7.21,4.2A7.36,7.36,0,0,0,2.87,8.73v0A1.42,1.42,0,0,0,2,8.46,1.8,1.8,0,0,0,.35,10.39,1.8,1.8,0,0,0,2,12.31a1.43,1.43,0,0,0,.73-.21h0A7.24,7.24,0,0,0,6.92,17" fill="#ffffff"/></g></g></svg>