<svg xmlns="http://www.w3.org/2000/svg" xmlns:xlink="http://www.w3.org/1999/xlink" version="1.1" id="Layer_1" x="0px" y="0px" viewBox="0 0 20.1 15.1" style="enable-background:new 0 0 20.1 15.1;" xml:space="preserve">
<style type="text/css">
	.st0{fill:none;stroke:#ffffff;stroke-width:0.7;stroke-linecap:round;stroke-linejoin:round;stroke-miterlimit:10;}
	.st1{fill:none;stroke:#ffffff;stroke-width:0.7;stroke-linejoin:round;stroke-miterlimit:10;}
</style>
<g>
	<g>
		<path class="st0" d="M19.7,9.9c0,0-1.1,0-1.8,0c-0.9,0-1.2,0.4-1.7,0.7c-0.6,0.3-1.1,0.7-1.9,0.7l-14.1,0v2.2    c0,0.7,0.5,1.2,1.2,1.2h12.9c0.8,0,1.3-0.4,1.9-0.7c0.5-0.3,0.8-0.7,1.7-0.7c0.7,0,1.8,0,1.8,0" fill="#ffffff"/>
		<line class="st1" x1="11.8" y1="6.5" x2="11.8" y2="10.1" fill="#ffffff"/>
		<path class="st0" d="M3.4,2.1C2.7,2.2,2.2,2.8,2.1,3.5" fill="#ffffff"/>
		<path class="st0" d="M13.9,6.4c2.4-2.4,0-5.6,0-5.6c-1.7,2.7-4.3,1.7-5.4,1.1C5.5,0.1,3.9,0.4,3.9,0.4C1.8,0.4,0.4,2,0.4,3.9    c0,0.4,0.1,0.8,0.2,1.2" fill="#ffffff"/>
		<polyline class="st1" points="2.3,6.4 1.4,6.4 1.4,10.1   " fill="#ffffff"/>
		<polyline class="st1" points="9.7,10.1 9.7,6.4 13.8,6.4 13.8,11.3   " fill="#ffffff"/>
		<polyline class="st1" points="3.4,10.1 3.4,6.4 4.4,6.4   " fill="#ffffff"/>
		<polyline class="st1" points="7.6,10.1 7.6,6.4 8.6,6.4   " fill="#ffffff"/>
		<polyline class="st1" points="5.5,10.1 5.5,6.4 6.5,6.4   " fill="#ffffff"/>
	</g>
</g>
</svg>