<svg xmlns="http://www.w3.org/2000/svg" xmlns:xlink="http://www.w3.org/1999/xlink" version="1.1" id="Layer_1" x="0px" y="0px" viewBox="0 0 18.6 21" style="enable-background:new 0 0 18.6 21;" xml:space="preserve">
<style type="text/css">
	.st0{fill:#ffffff;stroke:#ffffff;stroke-width:0.7;stroke-miterlimit:10;}
	.st1{fill:none;stroke:#ffffff;stroke-width:0.7;stroke-miterlimit:10;}
</style>
<g>
	<g>
		<g>
			<g>
				<path class="st0" d="M5.9,1.9c0,0.1-0.1,0.2-0.2,0.2C5.5,2.1,5.4,2,5.4,1.9c0-0.1,0.1-0.2,0.2-0.2C5.8,1.6,5.9,1.7,5.9,1.9z" fill="#ffffff"/>
			</g>
		</g>
		<path class="st1" d="M3,10.1C2.6,9.9,2.3,9.4,2.3,8.9c0-0.8,0.7-1.5,1.5-1.5c0.1,0,0.2,0,0.3,0" fill="#ffffff"/>
		<path class="st1" d="M13.7,6.2c0.2-0.9,1-1.5,1.9-1.5c1.1,0,2,0.9,2,2c0,0.6-0.2,1.1-0.6,1.4" fill="#ffffff"/>
		<path class="st1" d="M10,5.9c1.1-0.4,2.6-0.3,3.6,0.3L16.8,8c1.2,0.7,1.3,1.9,0.1,2.7l-7.2,4.8c-1.2,0.8-3.1,0.8-4.4,0.2l-3.7-2.1    c-1.2-0.7-1.3-1.9-0.1-2.6l3.3-2" fill="#ffffff"/>
		<path class="st1" d="M17.7,9.1c0,0,1.7,4.2-0.8,6.1L9.7,20c-1.2,0.8-3.1,0.8-4.4,0.2c0,0-3.3-1.8-3.7-2c-0.6-0.4-0.9-0.9-0.9-0.9    c-0.4-0.9-0.5-1.9-0.5-2.7" fill="#ffffff"/>
		<path class="st1" d="M11.6,1.9c0,0.8-0.7,1.5-1.5,1.5c-0.8,0-1.5-0.7-1.5-1.5c0-0.8,0.7-1.5,1.5-1.5C10.9,0.3,11.6,1,11.6,1.9z" fill="#ffffff"/>
		<g>
			<g>
				<path class="st0" d="M11.3,9.4c0,0.1-0.1,0.2-0.2,0.2c-0.1,0-0.2-0.1-0.2-0.2c0-0.1,0.1-0.2,0.2-0.2C11.2,9.2,11.3,9.3,11.3,9.4      z" fill="#ffffff"/>
			</g>
		</g>
		<ellipse transform="matrix(0.9231 -0.3845 0.3845 0.9231 -2.2976 3.0573)" class="st1" cx="6.5" cy="7.3" rx="2.3" ry="2.3" fill="#ffffff"/>
	</g>
</g>
</svg>